<?xml version="1.0" encoding="utf-8"?>
<!-- Generator: Adobe Illustrator 23.0.2, SVG Export Plug-In . SVG Version: 6.00 Build 0)  -->
<svg version="1.1" id="Слой_1" xmlns="http://www.w3.org/2000/svg" xmlns:xlink="http://www.w3.org/1999/xlink" x="0px" y="0px"
	 viewBox="0 0 114 40" style="enable-background:new 0 0 114 40;" xml:space="preserve">
<style type="text/css">
	.st0{clip-path:url(#SVGID_2_);}
	.st1{fill:#66B81D;}
	.st2{fill:#1A1A1A;}
	.st3{fill-rule:evenodd;clip-rule:evenodd;fill:#FFFFFF;}
	.st4{fill-rule:evenodd;clip-rule:evenodd;fill:#66B81D;}
	.st5{fill-rule:evenodd;clip-rule:evenodd;fill:#1A1A1A;}
</style>
<g>
	<defs>
		<rect id="SVGID_1_" width="113.5" height="40"/>
	</defs>
	<clipPath id="SVGID_2_">
		<use xlink:href="#SVGID_1_"  style="overflow:visible;"/>
	</clipPath>
	<g class="st0">
		<path class="st1" d="M42,13.8c1.7,0,3,0.4,3.9,1.2c0.9,0.8,1.3,1.9,1.3,3.5c0,1-0.2,1.8-0.6,2.6c-0.4,0.7-1,1.3-1.8,1.7
			c-0.8,0.4-1.7,0.6-2.9,0.6l-0.8,0c-0.5,0-0.9,0-1.1,0c-0.9,0-1.6,0-2.1,0V23c0.3,0,0.5-0.1,0.6-0.1c0.1-0.1,0.2-0.2,0.3-0.3
			c0-0.2,0.1-0.4,0.1-0.7v-6.7c0-0.3,0-0.6-0.1-0.7c0-0.2-0.1-0.3-0.3-0.3c-0.1-0.1-0.4-0.1-0.6-0.1v-0.3c0.4,0,0.9,0,1.6,0h0.4
			l0.5,0C41.1,13.8,41.7,13.8,42,13.8z M42,14.1c-0.3,0-0.5,0-0.6,0.1c-0.1,0.1-0.2,0.2-0.3,0.3C41,14.6,41,14.9,41,15.2v6.7
			c0,0.3,0,0.6,0.1,0.7c0.1,0.2,0.1,0.3,0.3,0.3c0.1,0.1,0.3,0.1,0.6,0.1c1.1,0,1.8-0.4,2.3-1.1c0.5-0.8,0.7-1.9,0.7-3.4
			c0-1.5-0.2-2.7-0.7-3.4C43.8,14.4,43,14.1,42,14.1z M55.4,21.3c0,0.8,0,1.5,0.1,2c-0.6,0-1.6,0-3.1,0c-1.9,0-3.4,0-4.4,0V23
			c0.3,0,0.5-0.1,0.6-0.1c0.1-0.1,0.2-0.2,0.3-0.3c0-0.2,0.1-0.4,0.1-0.7v-6.7c0-0.3,0-0.6-0.1-0.7c0-0.2-0.1-0.3-0.3-0.3
			c-0.1-0.1-0.4-0.1-0.6-0.1v-0.3c1,0,2.4,0,4.4,0c1.3,0,2.2,0,2.8,0c-0.1,0.7-0.1,1.4-0.1,2c0,0.4,0,0.7,0,0.9h-0.3
			c-0.1-1-0.4-1.6-0.7-2c-0.3-0.4-0.8-0.6-1.5-0.6h-0.5c-0.3,0-0.5,0-0.6,0.1c-0.1,0-0.2,0.1-0.3,0.3c0,0.1-0.1,0.3-0.1,0.6v3.3h0.4
			c0.5,0,0.8-0.2,1.1-0.5c0.2-0.3,0.4-0.8,0.5-1.2h0.3c0,0.4,0,0.8,0,1.3v0.6c0,0.5,0,1.1,0.1,1.9h-0.3c-0.2-1.2-0.7-1.8-1.6-1.8
			h-0.4v3.4c0,0.3,0,0.5,0.1,0.6c0,0.1,0.1,0.2,0.3,0.3c0.1,0,0.3,0.1,0.6,0.1h0.7c0.6,0,1.1-0.2,1.5-0.7c0.4-0.4,0.7-1.2,0.8-2.2
			h0.3C55.4,20.4,55.4,20.8,55.4,21.3z M65.4,14.1c-0.3,0-0.5,0.1-0.6,0.2c-0.1,0.1-0.2,0.3-0.3,0.5c0,0.2-0.1,0.6-0.1,1v7.5l-0.3,0
			l-0.4,0L57.9,16v5.2c0,0.5,0,0.9,0.1,1.2c0.1,0.2,0.2,0.4,0.3,0.5c0.2,0.1,0.5,0.2,0.9,0.2v0.3c-0.3,0-0.8,0-1.4,0
			c-0.5,0-0.9,0-1.2,0V23c0.3,0,0.5-0.1,0.6-0.2c0.1-0.1,0.2-0.3,0.3-0.5c0-0.2,0.1-0.6,0.1-1v-6c0-0.3,0-0.6-0.1-0.7
			c0-0.2-0.1-0.3-0.3-0.3c-0.1-0.1-0.4-0.1-0.6-0.1v-0.3c0.3,0,0.7,0,1.2,0c0.4,0,0.8,0,1.2,0l5.2,6.4V16c0-0.5,0-0.9-0.1-1.2
			c-0.1-0.2-0.2-0.4-0.3-0.5c-0.2-0.1-0.5-0.2-0.9-0.2v-0.3c0.3,0,0.8,0,1.4,0c0.5,0,0.9,0,1.2,0V14.1z M74.4,13.8
			c-0.1,0.9-0.1,1.6-0.1,2.3c0,0.4,0,0.8,0,1H74c-0.2-1.1-0.5-1.9-0.9-2.3c-0.4-0.4-0.9-0.7-1.5-0.7h-0.3v7.7c0,0.4,0,0.6,0.1,0.8
			c0.1,0.2,0.2,0.3,0.4,0.3C72,23,72.3,23,72.7,23v0.3c-1.1,0-2,0-2.5,0c-0.6,0-1.4,0-2.4,0V23c0.4,0,0.7,0,0.9-0.1
			c0.2-0.1,0.3-0.2,0.4-0.3c0.1-0.2,0.1-0.4,0.1-0.8v-7.7h-0.3c-0.4,0-0.8,0.1-1.1,0.3c-0.3,0.2-0.6,0.5-0.8,0.9
			c-0.2,0.4-0.4,1-0.5,1.8h-0.3c0-0.3,0-0.6,0-1c0-0.7,0-1.4-0.1-2.3c0.8,0,2.2,0,4.1,0C72.2,13.9,73.6,13.8,74.4,13.8z M79.3,14.1
			c-0.3,0-0.5,0.1-0.7,0.1c-0.1,0.1-0.2,0.2-0.3,0.3c0,0.2-0.1,0.4-0.1,0.7v6.7c0,0.3,0,0.6,0.1,0.7c0,0.2,0.1,0.3,0.3,0.3
			C78.8,23,79,23,79.3,23v0.3c-0.5,0-1.2,0-2,0c-1,0-1.7,0-2.1,0V23c0.3,0,0.5-0.1,0.6-0.1c0.1-0.1,0.2-0.2,0.3-0.3
			c0-0.2,0.1-0.4,0.1-0.7v-6.7c0-0.3,0-0.6-0.1-0.7c0-0.2-0.1-0.3-0.3-0.3c-0.1-0.1-0.4-0.1-0.6-0.1v-0.3c0.5,0,1.2,0,2.1,0
			c0.9,0,1.5,0,2,0V14.1z M83.5,13.6c0.5,0,0.8,0,1.1,0.1c0.3,0.1,0.6,0.2,0.8,0.4c0.1,0.1,0.2,0.1,0.3,0.1c0.1,0,0.1,0.1,0.2,0.1
			c0.1,0,0.1,0,0.2-0.1c0-0.1,0.1-0.2,0.1-0.4h0.3c0,0.6-0.1,1.6-0.1,3.1h-0.3c0-0.5-0.1-0.9-0.3-1.4c-0.2-0.4-0.4-0.8-0.8-1.1
			c-0.3-0.3-0.7-0.4-1.2-0.4c-0.4,0-0.8,0.1-1.1,0.4c-0.3,0.2-0.4,0.6-0.4,1c0,0.3,0.1,0.6,0.2,0.8c0.1,0.2,0.3,0.4,0.6,0.6
			c0.2,0.2,0.6,0.5,1.1,0.8l0.4,0.3c0.5,0.3,0.9,0.7,1.2,0.9c0.3,0.3,0.6,0.6,0.7,0.9c0.2,0.3,0.3,0.7,0.3,1.2
			c0,0.6-0.1,1.1-0.4,1.4c-0.3,0.4-0.7,0.7-1.2,0.9c-0.5,0.2-1.1,0.3-1.7,0.3c-0.5,0-0.9,0-1.2-0.1c-0.3-0.1-0.6-0.2-0.9-0.4
			c-0.2-0.1-0.3-0.2-0.5-0.2c-0.1,0-0.1,0-0.2,0.1c0,0.1-0.1,0.2-0.1,0.4h-0.3c0-0.6,0.1-1.8,0.1-3.6h0.3c0.1,1,0.3,1.8,0.7,2.4
			c0.4,0.6,1,0.9,1.8,0.9c0.5,0,0.9-0.1,1.2-0.4c0.3-0.3,0.5-0.6,0.5-1.1c0-0.5-0.2-0.9-0.5-1.3c-0.3-0.4-0.8-0.8-1.5-1.2
			c-0.5-0.3-1-0.7-1.3-0.9c-0.3-0.3-0.6-0.6-0.8-0.9c-0.2-0.4-0.3-0.8-0.3-1.2c0-0.5,0.1-1,0.4-1.4c0.3-0.4,0.6-0.6,1.1-0.8
			C82.5,13.7,83,13.6,83.5,13.6z M96.1,13.8c-0.1,0.9-0.1,1.6-0.1,2.3c0,0.4,0,0.8,0,1h-0.3c-0.2-1.1-0.5-1.9-0.9-2.3
			c-0.4-0.4-0.9-0.7-1.5-0.7h-0.3v7.7c0,0.4,0,0.6,0.1,0.8c0.1,0.2,0.2,0.3,0.4,0.3c0.2,0.1,0.5,0.1,0.9,0.1v0.3c-1.1,0-2,0-2.5,0
			c-0.6,0-1.4,0-2.4,0V23c0.4,0,0.7,0,0.9-0.1c0.2-0.1,0.3-0.2,0.4-0.3c0.1-0.2,0.1-0.4,0.1-0.8v-7.7h-0.3c-0.4,0-0.8,0.1-1.1,0.3
			c-0.3,0.2-0.6,0.5-0.8,0.9c-0.2,0.4-0.4,1-0.5,1.8h-0.3c0-0.3,0-0.6,0-1c0-0.7,0-1.4-0.1-2.3c0.8,0,2.2,0,4.1,0
			C93.9,13.9,95.3,13.8,96.1,13.8z M106,22.7c-0.2,0.3-0.5,0.5-0.8,0.6c-0.3,0.1-0.6,0.2-1,0.2c-0.5,0-0.9-0.1-1.2-0.3
			c-0.3-0.2-0.5-0.6-0.6-1.1l-0.2-1.3c-0.1-0.7-0.3-1.1-0.4-1.4c-0.2-0.3-0.4-0.5-0.8-0.5H100v3.1c0,0.3,0,0.6,0.1,0.7
			c0,0.2,0.1,0.3,0.3,0.3c0.1,0.1,0.4,0.1,0.7,0.1v0.3c-0.5,0-1.2,0-2,0c-1,0-1.7,0-2.1,0V23c0.3,0,0.5-0.1,0.6-0.1
			c0.1-0.1,0.2-0.2,0.3-0.3c0-0.2,0.1-0.4,0.1-0.7v-6.7c0-0.3,0-0.6-0.1-0.7c0-0.2-0.1-0.3-0.3-0.3c-0.1-0.1-0.4-0.1-0.6-0.1v-0.3
			c0.5,0,1.1,0,2,0l1.5,0c0.2,0,0.4,0,0.6,0c1.2,0,2.2,0.2,2.8,0.6c0.6,0.4,0.9,1,0.9,1.7c0,0.6-0.2,1.2-0.7,1.7
			c-0.5,0.5-1.2,0.8-2.3,0.9c0.8,0.1,1.4,0.2,1.8,0.5c0.4,0.3,0.6,0.7,0.8,1.2l0.3,1.4c0.1,0.4,0.2,0.6,0.2,0.8
			c0.1,0.1,0.2,0.2,0.4,0.2c0.1,0,0.2,0,0.3-0.1c0.1,0,0.2-0.1,0.3-0.2L106,22.7z M100.9,14.1c-0.2,0-0.4,0-0.5,0.1
			c-0.1,0.1-0.2,0.2-0.2,0.3c0,0.2-0.1,0.4-0.1,0.7v3.3h0.6c0.7,0,1.2-0.2,1.5-0.6c0.3-0.4,0.4-0.9,0.4-1.6c0-0.7-0.1-1.3-0.4-1.7
			C101.9,14.3,101.5,14.1,100.9,14.1z M112.5,13.8c0.4,0,0.7,0,1,0v0.3c-0.4,0.2-0.8,0.7-1.3,1.6l-1.6,3.1v3.1c0,0.3,0,0.6,0.1,0.7
			c0,0.2,0.1,0.3,0.3,0.3c0.1,0.1,0.4,0.1,0.7,0.1v0.3c-0.5,0-1.2,0-2.1,0c-1,0-1.6,0-2.1,0V23c0.3,0,0.5-0.1,0.6-0.1
			c0.1-0.1,0.2-0.2,0.3-0.3c0-0.2,0.1-0.4,0.1-0.7v-2.3l-2.6-4.8c-0.3-0.5-0.5-0.8-0.8-0.8v-0.3c0.4,0,0.9,0.1,1.6,0.1
			c0.8,0,1.7,0,2.5-0.1v0.3c-0.3,0-0.6,0-0.7,0.1c-0.2,0.1-0.3,0.2-0.3,0.3c0,0.1,0,0.2,0.1,0.3l2,3.9l1-2.1
			c0.3-0.7,0.5-1.3,0.5-1.7c0-0.3-0.1-0.5-0.3-0.7c-0.2-0.1-0.5-0.2-0.8-0.2v-0.3C111.4,13.8,111.9,13.8,112.5,13.8z"/>
		<path class="st2" d="M77.3,11.3C77.4,11.3,77.4,11.3,77.3,11.3c0,0.2,0,0.2,0,0.2c-0.3,0-0.5,0-0.6,0l-0.9,0l-0.9,0
			c-0.2,0-0.4,0-0.6,0c0,0,0,0,0-0.1c0-0.1,0-0.1,0-0.1c0.4,0,0.6-0.1,0.8-0.2c0.1-0.1,0.2-0.4,0.2-0.9V7.7c0-0.6-0.1-1.1-0.3-1.4
			C74.8,6.1,74.4,6,74,6c-0.3,0-0.6,0.1-0.9,0.2c-0.3,0.2-0.6,0.4-0.8,0.6V7v3.1c0,0.4,0.1,0.7,0.2,0.9c0.1,0.1,0.4,0.2,0.8,0.2
			c0,0,0,0,0,0.1c0,0.1,0,0.1,0,0.1c-0.3,0-0.5,0-0.6,0l-0.9,0l-0.9,0c-0.2,0-0.4,0-0.6,0c0,0,0,0,0-0.1c0-0.1,0-0.1,0-0.1
			c0.4,0,0.6-0.1,0.8-0.2c0.1-0.1,0.2-0.4,0.2-0.9V7.7c0-0.6-0.1-1.1-0.3-1.4c-0.2-0.3-0.5-0.4-1-0.4c-0.3,0-0.6,0.1-0.9,0.2
			c-0.3,0.1-0.6,0.4-0.8,0.6v3.4c0,0.4,0.1,0.7,0.2,0.9c0.1,0.1,0.4,0.2,0.8,0.2c0,0,0,0,0,0.1c0,0.1,0,0.1,0,0.1
			c-0.3,0-0.5,0-0.6,0l-0.9,0l-0.9,0c-0.1,0-0.3,0-0.6,0c0,0,0,0,0-0.1c0-0.1,0-0.1,0-0.1c0.4,0,0.6-0.1,0.7-0.2
			c0.1-0.1,0.2-0.4,0.2-0.9V7.1c0-0.3,0-0.6-0.1-0.8c-0.1-0.2-0.2-0.2-0.4-0.2c-0.2,0-0.5,0.1-0.8,0.2h0c0,0-0.1,0-0.1-0.1
			c0-0.1,0-0.1,0-0.1l2-0.9c0,0,0.1,0,0.1,0c0.1,0,0.2,0.1,0.3,0.4c0.1,0.2,0.2,0.5,0.2,0.9c0.7-0.9,1.5-1.3,2.3-1.3
			c0.5,0,0.9,0.1,1.1,0.4c0.3,0.2,0.5,0.6,0.6,1c0.8-0.9,1.6-1.4,2.4-1.4c0.6,0,1,0.2,1.3,0.5c0.3,0.3,0.4,0.8,0.4,1.5v3
			c0,0.3,0,0.5,0.1,0.7c0,0.2,0.1,0.3,0.3,0.3C76.9,11.2,77.1,11.3,77.3,11.3z M81.3,11.7c-0.6,0-1.2-0.1-1.6-0.4
			c-0.5-0.3-0.8-0.7-1.1-1.2c-0.3-0.5-0.4-1.1-0.4-1.7c0-0.7,0.2-1.3,0.5-1.7C79,6.1,79.5,5.7,80,5.5c0.5-0.2,1.1-0.4,1.6-0.4
			c0.6,0,1.2,0.2,1.6,0.5c0.5,0.3,0.8,0.7,1.1,1.2c0.3,0.5,0.4,1,0.4,1.6c0,0.6-0.2,1.2-0.5,1.7c-0.3,0.5-0.7,0.9-1.2,1.1
			C82.5,11.5,81.9,11.7,81.3,11.7z M81.8,11.4c0.5,0,0.9-0.2,1.2-0.6c0.3-0.4,0.4-1,0.4-1.8c0-0.7-0.1-1.3-0.3-1.8
			c-0.2-0.5-0.5-0.9-0.8-1.2c-0.4-0.3-0.8-0.4-1.2-0.4c-0.5,0-0.9,0.2-1.2,0.6c-0.3,0.4-0.4,1-0.4,1.7c0,0.7,0.1,1.3,0.3,1.8
			c0.2,0.5,0.5,1,0.8,1.3C80.9,11.2,81.3,11.4,81.8,11.4z M93.2,10.5C93.2,10.5,93.2,10.5,93.2,10.5c0.1,0.1,0.1,0.2,0.1,0.2
			l-1.9,0.9c-0.1,0-0.1,0-0.1,0c-0.1,0-0.2-0.1-0.3-0.3c-0.1-0.2-0.1-0.5-0.2-0.9c-0.4,0.4-0.8,0.7-1.2,0.9
			c-0.4,0.2-0.9,0.3-1.4,0.3c-0.4,0-0.8-0.1-1.2-0.4c-0.4-0.2-0.7-0.6-0.9-1.1c-0.2-0.5-0.3-1-0.3-1.6c0-0.8,0.2-1.4,0.6-1.9
			c0.4-0.5,0.8-0.9,1.4-1.2c0.6-0.3,1.1-0.4,1.7-0.4c0.5,0,1,0.1,1.4,0.3V2.1c0-0.4,0-0.7-0.1-0.8C90.6,1.1,90.5,1,90.3,1
			c-0.1,0-0.4,0.1-0.7,0.2h0c0,0-0.1,0-0.1-0.1c0-0.1,0-0.1,0-0.1l2.1-1c0,0,0,0,0.1,0c0,0,0.1,0,0.1,0c0,0,0.1,0.1,0.1,0.1v9.5
			c0,0.4,0,0.6,0.1,0.8c0.1,0.2,0.2,0.2,0.4,0.2C92.6,10.7,92.9,10.7,93.2,10.5L93.2,10.5z M88.9,11c0.4,0,0.7-0.1,1-0.2
			c0.3-0.2,0.6-0.4,0.9-0.7V6.5c-0.2-0.3-0.5-0.6-0.8-0.7c-0.3-0.2-0.6-0.3-1-0.3c-0.6,0-1.1,0.2-1.5,0.7c-0.4,0.4-0.5,1.1-0.5,2
			c0,0.9,0.2,1.6,0.5,2.1C87.9,10.8,88.4,11,88.9,11z M99.1,10.5C99.2,10.5,99.2,10.5,99.1,10.5c0.1,0.1,0.1,0.1,0.1,0.2
			c-0.4,0.3-0.7,0.6-1.1,0.7c-0.4,0.2-0.8,0.2-1.2,0.2c-0.6,0-1.2-0.1-1.6-0.4c-0.5-0.3-0.8-0.7-1-1.1c-0.2-0.5-0.4-1-0.4-1.5
			c0-0.6,0.1-1.2,0.4-1.7C94.6,6.4,95,6,95.5,5.7c0.5-0.3,1.1-0.5,1.8-0.5c0.6,0,1,0.1,1.4,0.4c0.3,0.3,0.5,0.7,0.5,1.1
			c0,0.3-0.1,0.4-0.2,0.4h-0.8l-3.1,0C95.1,7.4,95,7.7,95,8c0,0.9,0.2,1.6,0.7,2.2c0.4,0.6,1,0.8,1.8,0.8
			C98.1,11,98.6,10.8,99.1,10.5L99.1,10.5z M96.7,5.5c-0.4,0-0.7,0.1-1,0.4c-0.3,0.2-0.5,0.6-0.6,1.1l2.7-0.1c0-0.4-0.1-0.8-0.3-1
			C97.3,5.7,97.1,5.5,96.7,5.5z M104.2,5.2c0.2,0,0.5,0.1,0.7,0.2c0.2,0.1,0.3,0.3,0.3,0.5c0,0.2-0.1,0.3-0.2,0.4
			c-0.1,0.1-0.2,0.2-0.4,0.2c-0.1,0-0.2,0-0.3-0.1c-0.1,0-0.1-0.1-0.2-0.1c-0.1,0-0.1-0.1-0.1-0.1c-0.1-0.1-0.2-0.1-0.2-0.2
			c-0.1,0-0.2-0.1-0.3-0.1c-0.1,0-0.3,0.1-0.4,0.2c-0.1,0.1-0.4,0.3-0.7,0.7v3.4c0,0.3,0,0.5,0.1,0.7c0.1,0.2,0.2,0.3,0.4,0.3
			c0.2,0.1,0.5,0.1,0.9,0.1c0,0,0,0,0,0.1c0,0.1,0,0.1,0,0.1c-0.3,0-0.6,0-0.8,0l-1.2,0l-0.9,0c-0.1,0-0.3,0-0.6,0c0,0,0,0,0-0.1
			c0-0.1,0-0.1,0-0.1c0.4,0,0.6-0.1,0.7-0.2c0.1-0.1,0.2-0.4,0.2-0.9V7.1c0-0.3,0-0.6-0.1-0.8c-0.1-0.2-0.2-0.2-0.4-0.2
			c-0.2,0-0.5,0.1-0.8,0.2h0c0,0-0.1,0-0.1-0.1c0-0.1,0-0.1,0-0.1l2-0.9c0,0,0.1,0,0.1,0c0.1,0,0.2,0.1,0.3,0.3
			c0.1,0.2,0.2,0.5,0.2,0.9c0.4-0.5,0.8-0.8,1-1C103.7,5.3,104,5.2,104.2,5.2z M113.4,11.3C113.5,11.3,113.5,11.3,113.4,11.3
			c0,0.2,0,0.2,0,0.2c-0.3,0-0.5,0-0.6,0l-0.9,0l-0.9,0c-0.2,0-0.4,0-0.6,0c0,0,0,0,0-0.1c0-0.1,0-0.1,0-0.1c0.4,0,0.6-0.1,0.7-0.2
			c0.1-0.1,0.2-0.4,0.2-0.9V7.7c0-0.6-0.1-1.1-0.3-1.3c-0.2-0.3-0.6-0.4-1.1-0.4c-0.3,0-0.6,0.1-0.9,0.2c-0.3,0.1-0.6,0.4-0.8,0.6
			v3.4c0,0.4,0.1,0.7,0.2,0.9c0.1,0.1,0.4,0.2,0.8,0.2c0,0,0,0,0,0.1c0,0.1,0,0.1,0,0.1c-0.3,0-0.5,0-0.6,0l-0.9,0l-0.9,0
			c-0.1,0-0.3,0-0.6,0c0,0,0,0,0-0.1c0-0.1,0-0.1,0-0.1c0.4,0,0.6-0.1,0.7-0.2c0.1-0.1,0.2-0.4,0.2-0.9V7.1c0-0.3,0-0.6-0.1-0.8
			c-0.1-0.2-0.2-0.2-0.4-0.2c-0.2,0-0.5,0.1-0.8,0.2h0c0,0-0.1,0-0.1-0.1c0-0.1,0-0.1,0-0.1l2-0.9c0,0,0.1,0,0.1,0
			c0.1,0,0.2,0.1,0.3,0.4c0.1,0.2,0.2,0.5,0.2,0.9c0.8-0.9,1.6-1.3,2.4-1.3c0.6,0,1,0.2,1.3,0.5c0.3,0.3,0.5,0.8,0.5,1.4v3.1
			c0,0.4,0.1,0.7,0.2,0.9C112.8,11.2,113,11.3,113.4,11.3z"/>
		<path class="st3" d="M14,5.5C11.4,3.9,6.2,1,3.7,4.6C0.3,9.7,4.4,25.4,6.2,30.9c0.7,2,2.2,5.5,3.4,6.4c0.7,0.5,1.8,0.2,2.1-1.7
			c0.5-2.7,0.4-4.4,1.4-7.1c0-0.1,0.2-0.7,0.3-0.8c0.7-0.4,1.1-1.4,2.1-2.3c0.8-0.9,1.5-1.4,2.4-1.8c0.3-0.1,0.6,0,0.9-0.1
			c1.5,1,2.5,2.3,3.3,4.3c1,2.7,1.1,4.8,1.5,7.5c0.3,1.9,1.2,2.4,1.9,1.8c1.1-0.9,3-4.4,3.7-6.4C31,25.2,34.5,9.9,31,4.8
			c-1.7-2.6-4.5-2-6.8-0.7c-1,0.5-1.8,1.1-2.7,1.5c-0.6,0.3-1.2,0.5-1.8,0.5c-0.2,0-0.5,0.1-0.7,0.1c-0.3,0-0.6,0.1-0.9,0
			c-0.9-0.3-1.9-0.8-2.9-1.6C14.4,5,14.1,5,14,5.5z"/>
		<path class="st4" d="M18,6.1c0.8-0.5,1.6-1.1,2.7-1.9c3.3-2.6,8.9-6.6,12.5-2.3c5.1,6.1-0.3,24.5-3.1,31c-1.8,4-6.2,12.2-7.6,2.7
			c-0.6-4.3-0.7-9.9-5-12.1c-3.2-1.6-7.2-0.3-10,1.6c6.2-5.1,12.6-3.8,15,2.6c1,2.7,1,4.7,1.5,7.4c0.3,1.9,0.9,2.2,1.6,1.6
			c1.1-0.9,2.5-4,3.2-6.1c1.9-5.5,5.5-20.8,2.1-25.9C27.4-0.1,22.8,7.7,18,6.1z"/>
		<path class="st5" d="M27.8,6c-6.5,2.5-7.4,2.6-13.2-1.8C11.3,1.7,5.7-2.4,2.1,1.9C-3,8,2.4,26.4,5.3,32.9c1.8,4,6.2,12.2,7.6,2.7
			c0.6-4.1,0.7-9.4,4.5-11.8c-2.2,0-3.7,2.1-4.4,3.9c-1,2.7-1,4.7-1.5,7.4c-0.3,1.9-0.9,2.2-1.6,1.6c-1.1-0.9-2.5-4-3.2-6.1
			C4.8,25.2,1.1,9.9,4.6,4.8c2.4-3.6,6.4-0.2,9,1.4C20.2,10.2,24.5,8.5,27.8,6z"/>
		<path class="st4" d="M99.6,26.1C49,62.8,29.9,7.1,6.7,23.7C30.7,5.6,48.6,58.3,99.6,26.1z"/>
	</g>
</g>
</svg>
